<svg width="128" height="128" fill="none" xmlns="http://www.w3.org/2000/svg"><path d="M107.934 64c0 24.292-19.678 43.987-43.96 43.987-24.28 0-43.96-19.695-43.96-43.987s19.68-43.983 43.96-43.983c24.282 0 43.96 19.691 43.96 43.983Z" fill="#fff"/><path d="M51.94 98.68c-.01.036.036.073.148.11l.656.213c.083.03.129.033.136.017.006-.023.013-.158.02-.402l.013-1.287-.848 1.165a1.163 1.163 0 0 0-.125.184ZM75.424 98.733a6.306 6.306 0 0 0-.267-.752 2.794 2.794 0 0 0-.347-.617 1.203 1.203 0 0 0-.445-.372c-.168-.08-.36-.086-.574-.023-.197.059-.34.161-.425.306-.086.145-.132.32-.139.525-.01.204.014.432.066.676a8.81 8.81 0 0 0 .478 1.57c.106.244.222.448.35.613.129.162.27.28.429.346.155.07.333.076.53.017a.721.721 0 0 0 .42-.294c.092-.142.145-.31.161-.514a2.635 2.635 0 0 0-.043-.683 7.969 7.969 0 0 0-.194-.798ZM56.751 97.684a1.2 1.2 0 0 0-.181-.03.214.214 0 0 0-.125.027.198.198 0 0 0-.08.102c-.02.05-.04.116-.056.201l-.662 3.084a1.152 1.152 0 0 0-.033.264c0 .062.016.115.046.158.03.04.072.069.128.089.056.02.122.036.208.056.356.076.656-.023.904-.3.244-.28.438-.755.587-1.434.142-.667.161-1.181.052-1.544-.105-.36-.369-.584-.788-.673ZM45.885 95.89c-.02.033.023.08.125.135l.604.33c.079.043.125.056.132.04.013-.02.042-.152.095-.39l.248-1.262-1.046.989a.918.918 0 0 0-.158.158Z" fill="#275197"/><path d="M99.528 79.695a.77.77 0 0 1-.343.224c.033.095.056.191.072.283.02.096.027.192.023.28a3.16 3.16 0 0 1-.5-.108 6.124 6.124 0 0 1-.831-.327 5.184 5.184 0 0 1-.324-.171l.142-.337c.145.063.297.11.458.142.162.037.32.047.472.033a.96.96 0 0 0 .415-.125.663.663 0 0 0 .28-.33.972.972 0 0 0 .086-.363.613.613 0 0 0-.237-.508.989.989 0 0 0-.257-.154.843.843 0 0 0-.426-.07.706.706 0 0 0-.376.201 11.74 11.74 0 0 1-.517.462 2.06 2.06 0 0 1-.515.323 1.536 1.536 0 0 1-.574.116 1.853 1.853 0 0 1-.68-.162 1.483 1.483 0 0 1-.474-.3 1.287 1.287 0 0 1-.29-.392 1.029 1.029 0 0 1-.1-.442c0-.152.03-.3.09-.445a.889.889 0 0 1 .244-.33.776.776 0 0 1 .425-.168.563.563 0 0 1-.148-.258.879.879 0 0 1-.033-.27 4.3 4.3 0 0 1 .755.208c.274.099.528.2.765.3l-.151.356a4.505 4.505 0 0 0-.525-.099 1.818 1.818 0 0 0-.442-.007.865.865 0 0 0-.33.106.486.486 0 0 0-.197.224c-.083.201-.096.376-.04.531.06.155.168.267.336.337.12.049.225.072.317.066a.641.641 0 0 0 .27-.083c.09-.046.185-.112.278-.195.095-.082.204-.178.326-.28.135-.115.27-.22.396-.313.128-.093.26-.162.405-.205.142-.042.3-.056.469-.042.171.016.369.072.6.168.22.095.406.204.554.333.145.132.26.273.336.428a1.186 1.186 0 0 1 .01 1.02 1.183 1.183 0 0 1-.214.343Zm-2.124 4.171-.267-.141c.158-.297.115-.512-.129-.644l-2.81-1.49c-.32-.168-.56-.093-.732.227l-.277-.145 1.507-2.846 1.264.62-.13.32a2.268 2.268 0 0 0-.603-.158.774.774 0 0 0-.379.06.634.634 0 0 0-.247.22 3.295 3.295 0 0 0-.195.333.49.49 0 0 0-.076.284c.007.079.05.142.126.181l1.108.59c.102.053.171.04.214-.036.04-.079.073-.155.096-.227a.418.418 0 0 0 .006-.221.524.524 0 0 0-.131-.231 1.385 1.385 0 0 0-.327-.257l.155-.287 1.689.897-.152.287a2.237 2.237 0 0 0-.376-.136.563.563 0 0 0-.254-.01.354.354 0 0 0-.178.106c-.05.053-.1.125-.152.211-.046.119-.02.205.083.257l1.184.63c.2.106.369.036.497-.21.11-.202.175-.373.198-.515a.818.818 0 0 0-.026-.393 1.09 1.09 0 0 0-.218-.35 8.017 8.017 0 0 0-.379-.385l.201-.254 1.237.834-1.527 2.88Zm-.732 1.141c-.03.175-.093.337-.195.488-.188.284-.399.492-.63.62-.23.129-.478.195-.738.198a2.12 2.12 0 0 1-.808-.151 4.587 4.587 0 0 1-.851-.446 5.332 5.332 0 0 1-.795-.64 2.495 2.495 0 0 1-.511-.682 1.508 1.508 0 0 1-.155-.719c.007-.24.096-.485.257-.732.046-.073.106-.145.172-.218a1.8 1.8 0 0 1 .214-.204c.08-.06.162-.112.25-.155a.818.818 0 0 1 .271-.08.72.72 0 0 1-.089-.537c.412.112.92.37 1.527.772l-.218.326c-.458-.191-.818-.277-1.085-.257a.777.777 0 0 0-.623.37.67.67 0 0 0-.122.478c.023.158.089.313.198.468.105.155.247.307.422.452.175.148.36.287.554.415.267.178.524.33.775.462.247.129.478.218.692.264.215.05.41.05.584.003a.743.743 0 0 0 .436-.33.905.905 0 0 0 .135-.725c-.06-.254-.234-.558-.521-.91l.227-.139c.162.168.294.346.396.528.105.184.175.366.214.55.04.185.043.36.017.531Zm-1.804 2.764-3.987-.185 1.566 1.283c.41.337.732.353.973.06l.234.19-.883 1.08-.235-.192c.198-.24.096-.531-.31-.864l-2.407-1.969c-.115-.096-.28-.013-.495.234l.779.732-.218.267c-.211-.161-.386-.27-.531-.323a.75.75 0 0 0-.38-.06.612.612 0 0 0-.3.14 2.85 2.85 0 0 0-.286.26.49.49 0 0 0-.155.25.217.217 0 0 0 .066.208l.887.89c.079.083.148.093.21.034.063-.066.116-.129.162-.191a.462.462 0 0 0 .073-.208.59.59 0 0 0-.06-.26 1.506 1.506 0 0 0-.237-.344l.231-.23 1.349 1.358-.231.23a2.113 2.113 0 0 0-.317-.24.533.533 0 0 0-.24-.086.354.354 0 0 0-.198.05 1.26 1.26 0 0 0-.211.155c-.08.099-.08.191.003.27l.943.953c.165.162.343.145.541-.052.162-.162.277-.307.34-.436a.788.788 0 0 0 .092-.382 1.028 1.028 0 0 0-.105-.396 5.702 5.702 0 0 0-.248-.481l.267-.185.934 1.16-2.309 2.3-.211-.215c.237-.234.26-.452.063-.65l-2.243-2.255c-.254-.254-.508-.254-.765.003l-.22-.224 2.278-2.273.013.013.627-.765 3.558.202-1.421-1.168c-.376-.306-.68-.313-.92-.023l-.245-.198.881-1.075.244.198c-.214.264-.135.547.238.854l2.888 2.368-.072.188Zm-6.51 6.55-.195-.231c.267-.221.304-.446.116-.67l-2.028-2.388c-.244-.286-.505-.313-.779-.079l-.204-.237 1.494-1.273.204.24c-.254.215-.257.469-.013.756l2.028 2.388c.188.22.416.217.683-.01l.195.23-1.501 1.273Zm-.831.273a1.277 1.277 0 0 1-.521.894c-.277.198-.544.317-.808.356-.26.04-.518.017-.762-.07a2.203 2.203 0 0 1-.702-.428 4.266 4.266 0 0 1-.64-.716 5.194 5.194 0 0 1-.524-.873 2.462 2.462 0 0 1-.238-.822c-.023-.26.01-.5.106-.725.092-.228.257-.426.498-.597a1.77 1.77 0 0 1 .507-.26c.096-.03.195-.05.29-.06a.904.904 0 0 1 .284.023.722.722 0 0 1 .103-.537c.346.25.735.67 1.16 1.26l-.32.227c-.359-.34-.669-.547-.923-.62a.78.78 0 0 0-.716.129.678.678 0 0 0-.28.402c-.033.158-.026.33.02.511s.125.373.237.57c.112.202.238.396.376.584.188.26.373.495.56.703.189.207.374.37.558.491.185.122.366.191.544.208a.73.73 0 0 0 .525-.158.898.898 0 0 0 .382-.63c.033-.26-.026-.607-.171-1.036l.264-.05c.092.215.155.43.184.637.033.205.037.402.007.587Zm-2.856 2.012a1.166 1.166 0 0 1-.59.828 1.315 1.315 0 0 1-.38.155.827.827 0 0 1-.408-.023c-.03.095-.067.184-.106.273a1.433 1.433 0 0 1-.148.238 3.43 3.43 0 0 1-.344-.383 5.362 5.362 0 0 1-.293-.438c-.063-.106-.125-.212-.181-.317a7.663 7.663 0 0 1-.162-.33l.313-.188c.083.135.178.264.287.386.112.125.234.224.363.307.132.079.267.125.409.142a.688.688 0 0 0 .422-.103c.122-.076.218-.155.284-.24a.635.635 0 0 0 .105-.55 1.1 1.1 0 0 0-.115-.278.82.82 0 0 0-.304-.307c-.115-.06-.253-.082-.422-.06-.244.03-.478.054-.689.067a2.04 2.04 0 0 1-.607-.043 1.501 1.501 0 0 1-.53-.248 1.814 1.814 0 0 1-.456-.53 1.515 1.515 0 0 1-.204-.522 1.28 1.28 0 0 1-.004-.488 1.121 1.121 0 0 1 .518-.722.84.84 0 0 1 .39-.118.757.757 0 0 1 .441.112.587.587 0 0 1 .033-.294.858.858 0 0 1 .132-.237c.165.168.33.372.488.613.162.24.307.472.442.693l-.333.197a4.754 4.754 0 0 0-.366-.389 1.726 1.726 0 0 0-.353-.263.886.886 0 0 0-.326-.116.486.486 0 0 0-.294.07c-.185.108-.3.243-.346.402a.592.592 0 0 0 .076.471.665.665 0 0 0 .214.238c.08.05.168.082.267.095.1.017.215.017.34.007.125-.013.267-.023.429-.036.178-.01.346-.017.504-.017.158 0 .307.023.445.073.142.05.277.132.406.244.129.112.257.277.386.491.122.205.204.403.247.594.043.191.05.372.02.544Zm-7.252 3.931-.115-.277c.296-.122.379-.343.247-.666l-1.154-2.82c-.142-.35-.376-.458-.7-.326l-.118-.29 2.915-1.198.61 1.237-.326.181a2.175 2.175 0 0 0-.343-.465.78.78 0 0 0-.33-.197.753.753 0 0 0-.353.006 2.6 2.6 0 0 0-.409.139c-.188.075-.25.188-.188.34l.465 1.134c.056.135.172.168.343.099a.68.68 0 0 0 .198-.12.25.25 0 0 0 .086-.157.578.578 0 0 0-.01-.234 6.586 6.586 0 0 0-.076-.353l.28-.116.716 1.745-.287.115-.066-.165a1.407 1.407 0 0 0-.089-.168.446.446 0 0 0-.145-.148.45.45 0 0 0-.228-.066.784.784 0 0 0-.326.072c-.066.027-.106.056-.116.093-.01.033-.003.075.017.125l.485 1.187c.135.323.376.412.729.267l.112.277-1.824.749Zm-1.108-.185a1.747 1.747 0 0 1-.465.643c-.198.175-.435.3-.71.383a2.093 2.093 0 0 1-.764.082 1.647 1.647 0 0 1-.716-.244 2.158 2.158 0 0 1-.613-.613 3.644 3.644 0 0 1-.462-1.022c-.122-.42-.185-.792-.178-1.118.003-.327.06-.614.168-.858.109-.244.264-.448.465-.607a2.06 2.06 0 0 1 .7-.356c.26-.076.52-.102.78-.072.261.03.505.118.736.26.231.145.439.346.624.607.188.264.34.587.451.97.116.389.169.748.162 1.075-.01.326-.07.616-.178.87Zm-6.533-2.124-.749 2.345.168 1.402c.02.165.208.227.564.185l.037.3-2.022.24-.036-.3c.372-.043.547-.158.524-.343l-.161-1.345-1.138-1.814c-.159-.25-.317-.402-.478-.462-.01.003-.033.003-.043.007a.402.402 0 0 0-.159.086.236.236 0 0 0-.075.118.606.606 0 0 0-.017.135l.082 3.242c.01.35.179.521.502.521l.003.3-1.778.01-.003-.303c.327 0 .488-.158.485-.475l-.056-2.994-1.095 3.776h-.505l-1.216-3.743-.01 2.875c.003.383.188.571.554.571v.3l-1.395.007-.004-.301a.494.494 0 0 0 .39-.155c.089-.102.135-.263.135-.478l.03-3.133c0-.056 0-.109-.007-.155a.168.168 0 0 0-.063-.112.405.405 0 0 0-.165-.076 1.056 1.056 0 0 0-.2-.023l-.08 1.032h-.343a2.113 2.113 0 0 0-.08-.62.754.754 0 0 0-.194-.33.606.606 0 0 0-.293-.148 4.715 4.715 0 0 0-.383-.06.504.504 0 0 0-.293.037.227.227 0 0 0-.122.185l-.136 1.246c-.013.116.024.175.11.185.088.01.17.01.247.007a.43.43 0 0 0 .207-.076.552.552 0 0 0 .169-.208 1.42 1.42 0 0 0 .115-.399l.323.036-.208 1.903-.323-.036a2.098 2.098 0 0 0-.013-.399.58.58 0 0 0-.082-.238.352.352 0 0 0-.165-.128 1.287 1.287 0 0 0-.254-.063c-.126 0-.198.056-.208.172l-.148 1.332c-.023.228.102.359.382.389.225.023.41.023.551-.01a.78.78 0 0 0 .353-.168c.096-.082.178-.195.244-.33.07-.138.142-.303.22-.498l.31.093-.316 1.457-3.238-.356.03-.297c.336.037.517-.082.547-.359l.35-3.163c.039-.356-.123-.554-.482-.593l.033-.314 3.199.35-.003.05 1.358-.007 1.102 3.462 1.025-3.472.874-.003 1.85-.225.04.314c-.264.033-.39.112-.373.24a.721.721 0 0 0 .12.238l.913 1.457.494-1.619c.01-.072.01-.168-.003-.287-.016-.109-.165-.145-.455-.112l-.036-.313 1.338-.162.04.314c-.201.026-.34.122-.412.286Zm-12.215 3.526a1.363 1.363 0 0 1-.677.297c-.26.036-.567.019-.916-.056l-1.91-.409.063-.294c.109.02.195.033.267.033.07 0 .129-.016.175-.049a.388.388 0 0 0 .112-.162c.03-.076.056-.178.082-.303l.614-2.853c.033-.158.05-.274.046-.353-.003-.076-.02-.132-.056-.168a.395.395 0 0 0-.148-.092 1.728 1.728 0 0 1-.238-.11l.066-.31c.09.037.175.064.254.087.076.023.158.04.244.059.112.026.218.043.31.06.096.016.198.029.31.049.109.016.237.036.386.062.142.027.326.063.544.112.287.06.53.159.732.29.205.136.36.314.472.532.112.22.174.488.188.804.013.317-.023.683-.112 1.105a4.666 4.666 0 0 1-.327 1.016c-.128.28-.29.498-.481.653Zm-5.373-.775.093-.277c.053.006.105.013.165.023.056.01.112.016.158.02.05.003.089 0 .122-.007.036-.006.053-.02.06-.036a.208.208 0 0 0 .013-.083c0-.033.003-.069.003-.108l.04-.907a.173.173 0 0 0-.073-.142.573.573 0 0 0-.165-.09l-.778-.253c-.116-.036-.198-.017-.254.066l-.4.64a.648.648 0 0 0-.072.155c-.06.178.063.316.366.415l-.105.313-1.24-.405.102-.313c.204.046.402-.06.593-.32l2.527-3.433.465.25-.066 4.4a.303.303 0 0 0 .026.145.479.479 0 0 0 .086.112c.036.029.072.059.112.085a.797.797 0 0 0 .112.063l-.089.28-1.8-.593Zm-2.879-1.052c-.174 0-.346-.036-.514-.109-.31-.135-.55-.307-.716-.514a1.546 1.546 0 0 1-.326-.693 2.178 2.178 0 0 1 .013-.825c.056-.293.155-.596.294-.913.145-.336.31-.636.488-.897a2.53 2.53 0 0 1 .587-.62c.21-.152.438-.244.679-.277.24-.033.495.01.765.129.08.033.162.079.244.132a1.377 1.377 0 0 1 .435.396.87.87 0 0 1 .126.253.722.722 0 0 1 .514-.181c-.043.428-.208.973-.498 1.639l-.36-.158c.11-.485.133-.855.07-1.115a.792.792 0 0 0-.472-.55.662.662 0 0 0-.491-.037 1.1 1.1 0 0 0-.432.274 2.3 2.3 0 0 0-.37.494c-.118.198-.22.403-.316.62a8.809 8.809 0 0 0-.32.841 2.905 2.905 0 0 0-.138.729c-.014.221.02.412.095.574a.747.747 0 0 0 .403.373.894.894 0 0 0 .735.01c.24-.103.511-.327.808-.673l.175.204a2.64 2.64 0 0 1-.452.482c-.165.132-.33.23-.505.303-.174.07-.346.106-.52.109Zm-1.939-.818-1.662-.91.142-.26c.05.016.102.036.158.055.053.02.106.033.152.046.046.014.089.02.122.02.033-.003.056-.01.066-.026.01-.023.02-.05.026-.08.007-.032.013-.069.023-.108l.205-.884a.17.17 0 0 0-.046-.152.603.603 0 0 0-.145-.115l-.72-.396c-.105-.056-.19-.05-.26.023l-.508.554a.308.308 0 0 0-.053.06c-.016.023-.036.05-.049.079-.092.165.003.323.284.475l-.159.29-1.147-.63.158-.287c.191.083.406.013.643-.204l3.11-2.916.412.334-.87 4.313a.252.252 0 0 0 .003.148.375.375 0 0 0 .062.126 1.128 1.128 0 0 0 .191.188l-.138.257Zm-3.914-6.207a2.22 2.22 0 0 0 .257-.567.732.732 0 0 0 .006-.386.624.624 0 0 0-.171-.28 4.211 4.211 0 0 0-.297-.25.481.481 0 0 0-.267-.123.21.21 0 0 0-.198.093l-.771.99c-.07.091-.073.164-.004.217.07.056.139.099.208.135.066.033.139.05.214.043a.536.536 0 0 0 .254-.09c.09-.055.195-.148.307-.276l.257.198-1.174 1.51-.257-.198c.092-.135.158-.25.198-.346a.5.5 0 0 0 .052-.248.336.336 0 0 0-.072-.194 1.542 1.542 0 0 0-.181-.188c-.11-.066-.198-.053-.268.04l-.824 1.055c-.138.181-.099.36.122.53.178.14.336.235.472.284.138.047.267.06.392.04.125-.02.254-.073.383-.155.128-.08.277-.181.442-.307l.217.244-1.032 1.076-2.572-2.002.184-.238c.264.205.485.198.653-.02l1.953-2.513c.22-.283.188-.534-.1-.758l.195-.247 2.54 1.975-.825 1.138-.293-.182Zm-5.082.136a1.386 1.386 0 0 1-.456-.28 1.296 1.296 0 0 1-.25-.32.768.768 0 0 1-.092-.4c-.103 0-.198-.01-.294-.026a1.42 1.42 0 0 1-.27-.076c.079-.152.171-.297.273-.435.1-.139.211-.274.337-.406a6.429 6.429 0 0 1 .524-.511l.267.247a2.274 2.274 0 0 0-.29.386 1.563 1.563 0 0 0-.191.432 1.03 1.03 0 0 0-.023.436.663.663 0 0 0 .214.372c.109.1.214.168.313.208.1.036.198.05.29.04a.695.695 0 0 0 .268-.093c.085-.05.161-.112.234-.188a.823.823 0 0 0 .208-.379.704.704 0 0 0-.06-.422 11.01 11.01 0 0 1-.26-.643 2.053 2.053 0 0 1-.126-.594c-.01-.198.017-.389.086-.58.07-.188.195-.386.38-.584.141-.152.29-.267.445-.346.158-.08.313-.126.468-.139.155-.013.303.007.448.056.142.053.27.129.386.238a.86.86 0 0 1 .228.34c.05.135.053.286.013.458a.611.611 0 0 1 .294-.053.795.795 0 0 1 .263.06 3.94 3.94 0 0 1-.448.642c-.188.221-.37.426-.544.617l-.284-.264c.109-.161.198-.313.274-.461.072-.145.125-.284.155-.413a.832.832 0 0 0 .013-.346.46.46 0 0 0-.145-.26c-.159-.149-.32-.221-.485-.218a.586.586 0 0 0-.432.201.761.761 0 0 0-.168.274.741.741 0 0 0-.017.283c.014.1.047.212.093.327.046.119.095.254.151.402a6.4 6.4 0 0 1 .162.482c.043.148.063.3.053.448-.007.149-.046.3-.119.455a1.985 1.985 0 0 1-.363.508 1.923 1.923 0 0 1-.501.406 1.383 1.383 0 0 1-.515.175c-.174.016-.343 0-.507-.056ZM34.54 89.11l.221-.201c.228.247.442.277.647.092l2.348-2.15c.194-.175.247-.36.168-.55-.198-.205-.472-.189-.828.075l-2.988 2.24-.165-.116 1.138-3.829-1.626 1.214c-.419.316-.514.626-.287.93l-.24.181-.838-1.118.24-.181c.189.254.495.22.914-.093l2.49-1.866c.129-.093.08-.287-.138-.58-.159-.113-.35-.1-.584.045l-2.645 1.672c-.247.155-.277.383-.09.68l-.256.161-1.049-1.665.254-.162c.188.294.402.363.65.208l2.648-1.672c.28-.178.35-.399.234-.656l-.036.016c-.155-.303-.403-.366-.74-.194l-2.786 1.424c-.26.132-.313.35-.158.653l-.267.136-.9-1.765.267-.135c.168.327.379.422.64.29l1.289-.66a.643.643 0 0 0-.017-.164.924.924 0 0 0-.085-.218l-.304-.6a.74.74 0 0 0-.244-.284l-1.29.657c-.256.135-.31.35-.158.65l-.267.138-.907-1.774.267-.139c.175.336.39.439.65.307l2.787-1.425c.31-.158.396-.392.27-.69-.303.185-.689.37-1.164.552l-.138-.367c.422-.26.702-.504.84-.732a.788.788 0 0 0 .063-.722.692.692 0 0 0-.316-.38 1.14 1.14 0 0 0-.498-.111 2.336 2.336 0 0 0-.614.079 6.418 6.418 0 0 0-.663.211c-.3.112-.573.234-.82.36-.251.128-.456.263-.62.412a1.225 1.225 0 0 0-.344.471.742.742 0 0 0 .017.544.886.886 0 0 0 .508.535c.244.099.59.135 1.045.105l-.02.267a2.645 2.645 0 0 1-.663.014 1.794 1.794 0 0 1-.567-.146 1.404 1.404 0 0 1-.445-.296 1.257 1.257 0 0 1-.284-.442c-.118-.317-.165-.61-.135-.871a1.55 1.55 0 0 1 .267-.719 2.19 2.19 0 0 1 .597-.567c.25-.165.534-.31.858-.432.343-.132.67-.224.982-.277a2.4 2.4 0 0 1 .851-.017c.258.043.482.142.676.29.192.149.34.363.445.637.03.082.057.168.076.267a1.7 1.7 0 0 1 .04.294c.003.099 0 .198-.017.293a.887.887 0 0 1-.095.267c.208.023.37.103.488.241-.02.017-.053.036-.076.056l.89 1.741-.283.145c-.152-.3-.396-.366-.736-.19l-1.042.533c.004.06.014.12.03.172.017.056.043.115.076.181l.306.6c.09.172.165.278.228.317l1.052-.537c.337-.172.422-.42.254-.746l.284-.145.837 1.642.04-.026 1.045 1.662-.023.017.482.643-1.049 3.41 1.474-1.102c.39-.29.468-.587.24-.887l.255-.191.62.834 2.166 2.368-1.005.983-.258-.228c.172-.2.287-.376.35-.517a.724.724 0 0 0 .072-.376.64.64 0 0 0-.125-.307 3.598 3.598 0 0 0-.247-.297.502.502 0 0 0-.244-.165.221.221 0 0 0-.211.056l-.927.848c-.086.079-.099.148-.04.21.06.067.122.123.182.17a.425.425 0 0 0 .208.081.528.528 0 0 0 .26-.046 1.42 1.42 0 0 0 .353-.224l.218.24-1.412 1.294-.217-.241c.112-.115.194-.221.254-.307a.568.568 0 0 0 .092-.237.336.336 0 0 0-.04-.201 1.056 1.056 0 0 0-.148-.215c-.096-.085-.185-.089-.27-.01l-.987.904c-.171.155-.161.336.027.544.155.168.293.287.422.356.125.07.25.106.376.106.128 0 .26-.027.402-.086a6.5 6.5 0 0 0 .492-.228l.171.274-1.2.887-2.197-2.407Zm29.437-55.22c16.591 0 30.09 13.509 30.09 30.107 0 16.604-13.499 30.112-30.09 30.112-16.592 0-30.09-13.508-30.09-30.112 0-16.598 13.498-30.106 30.09-30.106Zm0-11.997c-23.204 0-42.084 18.89-42.084 42.104 0 23.22 18.88 42.11 42.084 42.11 23.204 0 42.081-18.89 42.081-42.11 0-23.214-18.877-42.104-42.081-42.104Z" fill="#275197"/><path d="M107.307 64.003c0-23.91-19.44-43.36-43.33-43.36-23.896 0-43.334 19.45-43.334 43.36 0 23.906 19.438 43.354 43.334 43.354 23.89 0 43.33-19.448 43.33-43.354Zm-43.33-43.927c24.203 0 43.894 19.708 43.894 43.927 0 24.216-19.691 43.921-43.894 43.921-24.206 0-43.901-19.705-43.901-43.92 0-24.22 19.695-43.928 43.9-43.928Z" fill="#275197"/><path d="M63.977 20.155c-24.163 0-43.822 19.668-43.822 43.848 0 24.177 19.658 43.845 43.822 43.845 24.163 0 43.819-19.668 43.819-43.845 0-24.18-19.656-43.848-43.82-43.848Zm0 87.845C39.727 108 20 88.262 20 64.003 20 39.741 39.728 20 63.977 20c24.246 0 43.974 19.741 43.974 44.003 0 24.26-19.728 43.997-43.974 43.997Z" fill="#275197"/><path d="M63.977 20.722c-23.853 0-43.258 19.415-43.258 43.281 0 23.864 19.404 43.278 43.258 43.278 23.85 0 43.251-19.414 43.251-43.278 0-23.866-19.401-43.28-43.251-43.28Zm0 86.711c-23.936 0-43.41-19.48-43.41-43.43 0-23.949 19.474-43.436 43.41-43.436 23.932 0 43.406 19.487 43.406 43.436 0 23.95-19.474 43.43-43.406 43.43Z" fill="#275197"/><path d="M63.977 61.164a2.839 2.839 0 1 0-.001 5.677 2.839 2.839 0 0 0 0-5.677Z" fill="#275197"/><path d="M72.99 69.214c-.93 0-1.688-.759-1.688-1.689 0-.933.758-1.691 1.688-1.691.933 0 1.692.758 1.692 1.691 0 .93-.759 1.689-1.692 1.689Zm-3.15-11.262c0-.934.759-1.692 1.692-1.692.934 0 1.692.758 1.692 1.692a1.692 1.692 0 0 1-3.383 0ZM70 62.734l-1.039-.02-.732 5.844a.081.081 0 0 1-.063.066.08.08 0 0 1-.082-.037l-.498-.913-5.428 2.288a.096.096 0 0 1-.03.007.075.075 0 0 1-.056-.026.075.075 0 0 1-.01-.09l.537-.89-4.692-3.558c-.027-.02-.037-.053-.027-.086.01-.03.04-.05.076-.05l1.036.02.735-5.847a.077.077 0 0 1 .06-.066.077.077 0 0 1 .082.04l.501.91 5.425-2.288a.084.084 0 0 1 .09.023.08.08 0 0 1 .006.089l-.538.887 4.693 3.558c.026.02.04.056.026.086-.01.033-.04.056-.072.053Zm-4.564 12.532a1.693 1.693 0 0 1-1.692-1.692c0-.934.758-1.692 1.692-1.692a1.692 1.692 0 0 1 0 3.383Zm-9.017-3.523a1.692 1.692 0 0 1 0-3.383c.934 0 1.692.758 1.692 1.692 0 .933-.758 1.691-1.692 1.691Zm-3.146-11.265c0-.933.759-1.692 1.689-1.692.933 0 1.691.759 1.691 1.692 0 .933-.758 1.692-1.691 1.692-.93 0-1.689-.759-1.689-1.692Zm9.247-7.74c.93 0 1.689.758 1.689 1.688 0 .934-.759 1.692-1.689 1.692a1.693 1.693 0 0 1-1.691-1.692c0-.93.758-1.688 1.691-1.688Zm22.983 8.993 4.469-7.463-6.975-5.247-12.73 2.467 2.506-7.275-4.224-7.605-8.027 3.42-4.231 12.268-5.043-5.814-8.693-.139-1.055 8.667L50 64.808l-7.552 1.464-4.466 7.463 6.972 5.247 12.733-2.47-2.51 7.275 4.225 7.605 8.027-3.42 4.23-12.265 5.043 5.811 8.697.139 1.052-8.664-8.502-9.798 7.552-1.464Z" fill="#275197"/><path d="M63.974 35.803c-15.533 0-28.17 12.648-28.17 28.19 0 15.543 12.637 28.19 28.17 28.19 15.536 0 28.173-12.647 28.173-28.19 0-15.542-12.637-28.19-28.173-28.19Zm0 57.146c-15.955 0-28.94-12.99-28.94-28.956 0-15.968 12.985-28.955 28.94-28.955 15.958 0 28.938 12.987 28.938 28.955 0 15.965-12.98 28.956-28.938 28.956Z" fill="#275197"/><path d="M30.5 49.047c0 .004 0 .007-.003.007a.031.031 0 0 1-.046.017c-.063-.027-.125-.053-.191-.076a.406.406 0 0 1-.132-.076.838.838 0 0 1-.317-.26c-.016-.024-.033-.047-.046-.07a.257.257 0 0 1-.023-.191.585.585 0 0 0 .01-.228.483.483 0 0 1 .013-.181.385.385 0 0 1 .105-.172.13.13 0 0 1 .132-.026.09.09 0 0 1 .056.076c.01.072.043.138.1.188a.327.327 0 0 0 .115.072.143.143 0 0 1 .086.129c0 .046-.004.09-.01.129a.265.265 0 0 0 .023.174.3.3 0 0 0 .066.08c.056.04.085.102.085.171 0 .08-.006.158-.023.237Zm4.185 2.926a3.967 3.967 0 0 1-.626-.373 1.715 1.715 0 0 1-.221-.188 3.551 3.551 0 0 0-.485-.399 1.144 1.144 0 0 1-.24-.214.877.877 0 0 1-.146-.231.305.305 0 0 0-.181-.168 3.954 3.954 0 0 1-.307-.126.375.375 0 0 1-.191-.21 2.008 2.008 0 0 0-.056-.123 1.95 1.95 0 0 1-.093-.184 4.584 4.584 0 0 1-.135-.353.432.432 0 0 1 0-.274.663.663 0 0 0-.05-.531.49.49 0 0 0-.075-.092.156.156 0 0 1-.04-.178.274.274 0 0 0-.016-.228 1.628 1.628 0 0 0-.076-.125c-.026-.033-.076-.043-.109-.017-.007.003-.01.007-.013.01a.687.687 0 0 0-.145.244.579.579 0 0 0-.023.3c.016.096.02.198.006.297a.499.499 0 0 1-.052.168.112.112 0 0 1-.05.046.1.1 0 0 1-.128-.056.48.48 0 0 0-.179-.217.263.263 0 0 1-.122-.201 3.732 3.732 0 0 0-.04-.268.297.297 0 0 0-.062-.138.476.476 0 0 1-.086-.386.23.23 0 0 0-.03-.185.332.332 0 0 1-.045-.2.594.594 0 0 0-.024-.241 1.812 1.812 0 0 0-.082-.208.524.524 0 0 1-.056-.34.133.133 0 0 0-.109-.152.669.669 0 0 0-.36.03.616.616 0 0 0-.362.346 2.108 2.108 0 0 0-.125.403c-.04.19-.076.386-.116.577-.033.171-.06.343-.076.518a.138.138 0 0 1-.155.122.632.632 0 0 1-.293-.116 3.914 3.914 0 0 1-.231-.178.659.659 0 0 0-.87.04.669.669 0 0 0-.156.224.127.127 0 0 1-.155.07.733.733 0 0 0-.168-.04.21.21 0 0 0-.23.178v.016a.132.132 0 0 1-.024.06.445.445 0 0 0-.086.177.586.586 0 0 0 .056.416.482.482 0 0 0 .255.23.188.188 0 0 0 .22-.052.683.683 0 0 1 .1-.096c.026-.02.055-.036.082-.056a.524.524 0 0 1 .336.073c.188.112.386.208.587.287.185.07.36.171.511.3.033.026.063.053.096.083a.548.548 0 0 1 .155.306c.036.244.099.485.185.716.099.26.2.52.306.778.047.119.106.234.178.343a.217.217 0 0 1-.032.277 1.724 1.724 0 0 1-.185.158.427.427 0 0 1-.307.083c-.112-.017-.224-.026-.34-.04a1.028 1.028 0 0 1-.31-.082.495.495 0 0 0-.227-.046.304.304 0 0 0-.168.05.064.064 0 0 0-.023.082c.069.148.168.28.293.389.08.069.172.122.27.155.172.06.353.089.538.095.09 0 .181.007.27.023.073.01.146.023.215.04.264.056.537.063.805.02a.436.436 0 0 0 .303-.215.734.734 0 0 0 .092-.425.68.68 0 0 0-.079-.264.397.397 0 0 0-.27-.198.739.739 0 0 1-.34-.161.363.363 0 0 1-.122-.208.53.53 0 0 1-.01-.178.467.467 0 0 0-.026-.178.326.326 0 0 0-.086-.135.211.211 0 0 1-.063-.188c.023-.112.056-.221.1-.327a.165.165 0 0 1 .207-.096c.135.047.27.09.409.126.208.053.409.128.6.22.037.02.06.06.056.1a.89.89 0 0 1-.052.204 2.077 2.077 0 0 1-.149.28.35.35 0 0 1-.148.13.127.127 0 0 0-.073.124c.003.047.03.086.07.112a.495.495 0 0 0 .247.076.676.676 0 0 0 .33-.079.473.473 0 0 0 .168-.165.235.235 0 0 0 .016-.204.234.234 0 0 1-.013-.142.185.185 0 0 1 .076-.115.164.164 0 0 1 .188-.004c.086.056.178.106.277.145.178.073.356.149.53.235.195.095.403.155.617.184.165.02.324.063.479.126.161.062.33.105.504.122.073.01.145.01.215 0a.076.076 0 0 0 .069-.086.077.077 0 0 0-.023-.05 1.012 1.012 0 0 0-.27-.184ZM44.754 36.272a.164.164 0 0 1 .082-.175.164.164 0 0 1 .152-.007.175.175 0 0 1 .096.142c.003.092 0 .185-.014.277a1.112 1.112 0 0 0-.006.277.098.098 0 0 1-.06.096.97.97 0 0 0-.21.105c-.03.023-.063.046-.09.073-.023.016-.05.013-.062-.007a.136.136 0 0 1-.017-.062.67.67 0 0 1 .08-.436.388.388 0 0 0 .049-.283Zm2.615.409c-.175.128-.343.27-.498.418-.149.142-.31.274-.475.393a3.84 3.84 0 0 0-.313.247 1.165 1.165 0 0 1-.376.221c-.195.07-.4.116-.607.132-.122.01-.247.003-.37-.016a.221.221 0 0 1-.075-.033.19.19 0 0 1-.046-.264c.095-.136.217-.25.362-.337.11-.066.221-.135.334-.204.184-.115.349-.264.474-.442a.33.33 0 0 0 .027-.343 3.497 3.497 0 0 0-.534-.745.39.39 0 0 1-.096-.337c.016-.095.026-.198.023-.293a.225.225 0 0 1 .105-.198.662.662 0 0 0 .182-.165.67.67 0 0 0 .138-.36.427.427 0 0 0-.04-.22.226.226 0 0 0-.253-.122c-.135.03-.264.066-.393.105a.412.412 0 0 0-.28.31c-.02.1-.043.195-.072.287a.085.085 0 0 1-.076.06.113.113 0 0 0-.106.115c.003.023.01.046.026.063.076.098.132.21.172.33a.615.615 0 0 1-.01.392.531.531 0 0 1-.204.26.391.391 0 0 1-.149.06c-.013 0-.03 0-.043-.004a.126.126 0 0 1-.102-.151c.023-.12.063-.231.122-.337a.604.604 0 0 0 .066-.379.739.739 0 0 0-.214-.409 3.529 3.529 0 0 1-.376-.425.18.18 0 0 0-.142-.07.348.348 0 0 1-.211-.072 2.311 2.311 0 0 1-.343-.33.375.375 0 0 1-.092-.303.107.107 0 0 0-.09-.122.317.317 0 0 0-.326.164.262.262 0 0 1-.198.132 2.128 2.128 0 0 1-.63-.042.095.095 0 0 1-.075-.106.462.462 0 0 1-.03-.415c.05-.12.105-.235.171-.347.149-.257.29-.52.426-.785a1.76 1.76 0 0 1 .432-.55c.125-.106.267-.195.415-.261a.498.498 0 0 1 .39-.01c.059.027.115.063.161.109.145.145.31.264.495.36.237.122.451.29.63.49.178.202.35.403.524.608.158.184.277.399.353.63.046.145.122.277.22.392.218.257.403.54.548.844.033.07.063.142.093.215.049.138.122.273.21.392.189.254.393.498.607.729a.895.895 0 0 1 .238.518.234.234 0 0 1-.1.22Zm-4.26-2.108a.412.412 0 0 1-.163.056c-.023.004-.049-.003-.062-.023a.215.215 0 0 1-.02-.184.214.214 0 0 1 .178-.146.116.116 0 0 1 .115.056c.024.04.034.086.024.13a.186.186 0 0 1-.073.111Zm.24 1.742-.01.105c0 .046-.026.09-.066.115a.143.143 0 0 1-.116.02.138.138 0 0 1-.052-.03.058.058 0 0 1-.02-.062.34.34 0 0 0 .01-.181.129.129 0 0 1 .05-.13.119.119 0 0 1 .138 0c.053.037.079.1.066.163Zm.033-1.194a.126.126 0 0 1 .046-.132.122.122 0 0 1 .105-.023.222.222 0 0 1 .076.033.4.4 0 0 1 .132.155.58.58 0 0 1 .06.184.42.42 0 0 1-.043.26.24.24 0 0 1-.096.103.187.187 0 0 1-.257-.063 2.953 2.953 0 0 1-.096-.174c-.016-.043-.013-.09.017-.122.056-.06.076-.142.056-.221Zm.834 1.622a.397.397 0 0 0-.086.132.738.738 0 0 0-.036.37c.023.135.043.27.06.405a.573.573 0 0 1-.017.211.126.126 0 0 1-.072.086.196.196 0 0 1-.195-.013 1.759 1.759 0 0 0-.465-.218 1.255 1.255 0 0 1-.538-.333 15.25 15.25 0 0 0-.725-.735 5.707 5.707 0 0 1-.492-.528 1.552 1.552 0 0 1-.125-.175.364.364 0 0 1-.036-.303c.046-.149.063-.3.043-.452a2.412 2.412 0 0 1-.013-.267.143.143 0 0 0-.093-.135 2.273 2.273 0 0 1-.115-.574.343.343 0 0 1 .06-.211c.002-.004.006-.01.012-.014a.051.051 0 0 1 .066.014c.043.06.066.132.073.204.01.106.016.211.023.317l.006.175c0 .036.027.069.066.079a.44.44 0 0 0 .245-.014.104.104 0 0 1 .102.014c.125.092.23.214.303.353.04.079.05.171.023.254a.196.196 0 0 1-.095.115.148.148 0 0 0-.073.158.17.17 0 0 0 .066.102c.053.04.096.096.122.159.01.03.043.043.07.033a.196.196 0 0 1 .154-.007c.07.03.129.08.168.145.014.023.033.04.056.05a.158.158 0 0 1 .09.191c-.027.073-.05.148-.073.224-.023.073-.04.149-.046.224 0 .037.003.073.016.11.02.055.066.098.122.115.07.02.136.056.192.102a.279.279 0 0 0 .28.05.658.658 0 0 1 .227-.037.153.153 0 0 0 .159-.145c.006-.135.033-.267.072-.399a.405.405 0 0 1 .139-.201.207.207 0 0 1 .194-.043c.05.01.093.033.132.063.05.043.073.112.056.174a.339.339 0 0 1-.102.175Zm3.667-.676c-.32-.511-.676-.992-1.068-1.448a2.978 2.978 0 0 1-.478-.765 2.882 2.882 0 0 0-.238-.445 8.845 8.845 0 0 0-.419-.577 7.834 7.834 0 0 1-.738-1.111 1.375 1.375 0 0 0-.396-.442 3.435 3.435 0 0 1-.518-.459.316.316 0 0 0-.26-.099 1.132 1.132 0 0 1-.446-.05.643.643 0 0 0-.567.087c-.22.155-.419.34-.593.544a9.758 9.758 0 0 0-.432.544c-.165.22-.32.452-.459.692a1.403 1.403 0 0 0-.171.482c-.05.297-.102.594-.162.89-.063.32-.08.65-.05.977.017.18.06.362.126.534.102.27.237.527.406.765.148.208.296.412.445.617.224.31.445.62.656.94.145.22.24.471.274.735.023.181.066.356.125.528a.202.202 0 0 1-.007.132c-.01.023-.032.042-.056.042a.079.079 0 0 1-.075-.036 20.781 20.781 0 0 0-.392-.663 3.963 3.963 0 0 1-.294-.577 2 2 0 0 0-.221-.392.196.196 0 0 1-.023-.195.145.145 0 0 0-.014-.122 2.069 2.069 0 0 0-.158-.211 1.642 1.642 0 0 1-.247-.356 5.339 5.339 0 0 0-.37-.6 6.122 6.122 0 0 1-.316-.502.583.583 0 0 1-.063-.165.437.437 0 0 0-.316-.342c-.024-.007-.05.006-.06.032v.02c.023.162.083.317.168.452a10.708 10.708 0 0 1 .56 1.006c.252.52.522 1.029.802 1.533.264.465.521.934.772 1.405.115.215.274.403.468.551.076.06.159.105.248.139a.13.13 0 0 0 .165-.07c.069-.155.079-.33.023-.488a4.112 4.112 0 0 0-.1-.257 1.366 1.366 0 0 1-.052-.165c-.023-.086-.043-.175-.063-.26a8.674 8.674 0 0 0-.217-.825 2.57 2.57 0 0 1-.073-.274c-.007-.023.01-.05.033-.056.033-.01.07 0 .096.027.023.026.046.05.072.072.1.086.208.165.323.234.208.126.432.215.67.26a4.212 4.212 0 0 0 1.827-.022 1.46 1.46 0 0 0 .686-.373c.211-.204.455-.373.719-.498.132-.063.257-.132.372-.214.139-.1.258-.221.35-.363a.51.51 0 0 0 .076-.346.281.281 0 0 0-.09-.162 1.568 1.568 0 0 1-.26-.31ZM62.905 28.149a.53.53 0 0 0 .264-.165c.07-.086.148-.165.237-.23a.236.236 0 0 0 .083-.169c0-.05-.03-.096-.076-.109a.613.613 0 0 1-.148-.072 1.66 1.66 0 0 0-.324-.165l-.27-.109a.11.11 0 0 0-.135.043l-.11.188a.284.284 0 0 0-.012.247.113.113 0 0 1 0 .093.445.445 0 0 1-.145.178.709.709 0 0 1-.468.115 2.065 2.065 0 0 0-.515.007.282.282 0 0 1-.185-.04.12.12 0 0 1-.056-.132.299.299 0 0 1 .096-.168c.062-.056.122-.116.184-.172.235-.224.442-.471.617-.745a.645.645 0 0 1 .274-.24.703.703 0 0 0 .326-.3c.047-.083.086-.169.116-.258a.37.37 0 0 1 .277-.237c.158-.027.31-.086.448-.172a.159.159 0 0 0 .076-.138.22.22 0 0 0-.082-.169 1.356 1.356 0 0 1-.198-.19.745.745 0 0 0-.32-.225.318.318 0 0 0-.221 0 .358.358 0 0 0-.178.132c-.056.082-.076.181-.056.277a.454.454 0 0 1-.135.415c-.116.1-.221.208-.32.323-.205.248-.41.492-.614.74-.178.21-.356.421-.537.632a1.476 1.476 0 0 1-.465.367.217.217 0 0 0-.116.197c.004.096-.003.188-.02.28a.691.691 0 0 1-.046.156.28.28 0 0 0 .033.277c.05.066.142.085.215.046a.29.29 0 0 0 .135-.181.123.123 0 0 1 .102-.093c.083-.006.162-.006.24 0 .278.03.558.03.835 0a.181.181 0 0 1 .122.033c.053.036.11.066.169.093.046.016.082.059.092.108.006.046.016.09.026.136.033.18.027.369-.02.55a.657.657 0 0 1-.125.238c-.056.072-.122.142-.185.207-.01.01-.023.017-.032.024a.153.153 0 0 1-.215-.056.72.72 0 0 1-.08-.532.196.196 0 0 0-.035-.164c-.023-.03-.06-.033-.086-.014l-.007.007c-.026.026-.056.053-.082.082a1.77 1.77 0 0 0-.221.277.345.345 0 0 1-.221.155.292.292 0 0 0-.198.175.81.81 0 0 0-.04.459.642.642 0 0 1-.04.37.295.295 0 0 0 .027.29.332.332 0 0 0 .182.138.26.26 0 0 0 .297-.112c.049-.08.102-.159.154-.238a.373.373 0 0 1 .162-.142.587.587 0 0 0 .181-.141.432.432 0 0 1 .228-.146.29.29 0 0 1 .175.014.19.19 0 0 1 .102.112c.05.138.08.283.09.432.009.119.035.234.078.343.04.099.116.178.215.22.092.04.194.06.296.063a.202.202 0 0 0 .195-.135.635.635 0 0 0 .007-.376 5.53 5.53 0 0 1-.106-.386 4.473 4.473 0 0 1-.096-.55 1.073 1.073 0 0 1 .096-.59c.04-.09.086-.179.132-.265a.89.89 0 0 1 .264-.29.303.303 0 0 0 .135-.263.133.133 0 0 0-.07-.116.176.176 0 0 0-.207.033.645.645 0 0 0-.122.185.144.144 0 0 1-.198.06.104.104 0 0 1-.053-.116l.06-.251a.203.203 0 0 1 .148-.155ZM65.336 27.8a.088.088 0 0 1-.04.065c-.02.017-.05.014-.07-.006a.347.347 0 0 1-.095-.182 1.096 1.096 0 0 1-.109-.283.126.126 0 0 0-.033-.066.688.688 0 0 1-.105-.178.157.157 0 0 1 .016-.152.378.378 0 0 0 .046-.106.994.994 0 0 1 .076-.194.359.359 0 0 1 .152-.145.2.2 0 0 1 .122-.017.063.063 0 0 1 .05.053c.036.406.032.811-.01 1.21Zm-.182.451c-.013.1-.01.201.007.304a.432.432 0 0 1-.01.194.163.163 0 0 1-.168.116 1.43 1.43 0 0 0-.168 0c-.07.003-.142.01-.212.013a.113.113 0 0 0-.105.096.56.56 0 0 0-.007.128c0 .026-.02.05-.046.05a.349.349 0 0 1-.102-.017.038.038 0 0 1-.023-.043.196.196 0 0 0-.023-.128c-.013-.02-.013-.043.003-.06.02-.023.04-.046.06-.066l.247-.27c.112-.129.201-.274.264-.436a.448.448 0 0 1 .165-.2.09.09 0 0 1 .099-.004c.02.01.032.03.039.053a.232.232 0 0 1 .003.082c-.01.063-.016.126-.023.188Zm1.613-.04c-.109-.128-.218-.253-.327-.382a.24.24 0 0 1-.062-.152c-.01-.125-.01-.25 0-.376.006-.105.02-.207.043-.313.033-.178.059-.356.082-.537.013-.12.02-.241.02-.36v-.293a.142.142 0 0 0-.132-.145.237.237 0 0 1-.122-.043.146.146 0 0 1-.07-.1.637.637 0 0 1-.01-.237.177.177 0 0 0-.092-.181.155.155 0 0 0-.204.06.373.373 0 0 1-.152.15c-.056.034-.115.064-.174.093l-.13.05a.247.247 0 0 0-.144.105.636.636 0 0 0-.106.27.2.2 0 0 1-.125.159.361.361 0 0 1-.221.01.275.275 0 0 1-.125-.076c-.014-.016-.02-.036-.014-.06a.073.073 0 0 0-.01-.072.086.086 0 0 0-.069-.036.49.49 0 0 1-.171-.02.14.14 0 0 0-.142.033.406.406 0 0 0-.056.076.206.206 0 0 0 .016.224c.093.119.175.244.248.373.013.03.016.06.02.089a.305.305 0 0 1-.017.132c-.026.062-.053.125-.082.184a.414.414 0 0 1-.277.225c-.053.01-.086.066-.076.118.003.007.006.014.006.02.027.06.043.125.043.191.003.093.013.182.036.27.024.103.06.199.106.291a.11.11 0 0 1-.013.125 1.31 1.31 0 0 0-.215.38.95.95 0 0 1-.247.363.562.562 0 0 0-.145.224c-.026.076-.05.155-.07.23-.029.113-.069.221-.118.324a.46.46 0 0 0-.03.35c.014.049.04.092.076.128.06.056.145.076.224.056a.464.464 0 0 0 .218-.142c.086-.099.185-.188.294-.26a.162.162 0 0 1 .145-.014c.072.03.155.01.204-.046.043-.053.09-.102.139-.148.056-.053.118-.102.181-.149a.114.114 0 0 1 .135.01.295.295 0 0 1 .083.106.286.286 0 0 1-.007.277.442.442 0 0 0-.056.168c-.01.09-.01.178 0 .267.013.122.013.248-.007.37a1.15 1.15 0 0 0 0 .336c.067.445.07.9.007 1.349a6.092 6.092 0 0 0-.056.95c0 .026.023.05.05.046.006 0 .016 0 .023-.007a.432.432 0 0 0 .2-.277c.05-.224.103-.448.153-.673.046-.197.108-.392.187-.577.162-.379.304-.761.426-1.154a.633.633 0 0 0 .02-.293 2.689 2.689 0 0 1-.033-.459c0-.171.03-.343.082-.508a.415.415 0 0 1 .119-.181 1.03 1.03 0 0 1 .333-.208.488.488 0 0 0 .201-.155.467.467 0 0 1 .119-.109.156.156 0 0 0 .063-.125.231.231 0 0 0-.05-.132 3.876 3.876 0 0 0-.145-.181ZM83.734 31.707a.378.378 0 0 0 .284.238.58.58 0 0 0 .399-.073.665.665 0 0 0 .3-.37c.053-.154.073-.316.066-.477a3.234 3.234 0 0 1 .092-.927.087.087 0 0 0-.03-.092.062.062 0 0 0-.085.003l-.01.017a1.226 1.226 0 0 0-.788.61l-.287.544a.348.348 0 0 0-.03.244c.027.095.056.188.09.283ZM85.591 32.45a.121.121 0 0 0 .09.125c.121.03.25.01.355-.05a.443.443 0 0 1 .257-.06c.205.014.413.02.617.02.106-.003.211-.006.317-.013.026 0 .046-.02.053-.046a.137.137 0 0 0-.06-.135.506.506 0 0 0-.323-.072.624.624 0 0 1-.406-.093.177.177 0 0 1-.079-.115.76.76 0 0 1-.01-.122.07.07 0 0 0-.069-.07c-.01 0-.02 0-.03.004a.093.093 0 0 1-.112-.03c-.013-.02-.02-.046-.01-.07 0-.085.007-.167.02-.25a.126.126 0 0 0-.07-.132.196.196 0 0 0-.18.004.666.666 0 0 0-.182.148.984.984 0 0 0-.158.24.47.47 0 0 0-.04.284c.023.145.03.29.02.432Z" fill="#fff"/><path d="M87.975 33.106a.81.81 0 0 0-.01-.357.172.172 0 0 0-.151-.128c-.053-.003-.09-.05-.086-.102a.06.06 0 0 0-.053-.066c-.006 0-.013 0-.02.003a.346.346 0 0 0-.224.188.924.924 0 0 1-.264.343.403.403 0 0 1-.257.092c-.155.004-.31.004-.468 0-.139 0-.277-.016-.416-.05a.578.578 0 0 0-.237-.01c-.152.024-.303.03-.455.02-.31-.02-.62-.059-.924-.115a.99.99 0 0 1-.267-.092.986.986 0 0 0-.346-.096.518.518 0 0 0-.353.103.211.211 0 0 1-.198.03.19.19 0 0 1-.125-.212.46.46 0 0 0 .01-.135.12.12 0 0 0-.07-.106.745.745 0 0 0-.178-.056.116.116 0 0 0-.135.09v.022c0 .04-.03.07-.069.073-.026 0-.053.003-.082.007a.11.11 0 0 1-.09-.03c-.03-.023-.059-.05-.089-.073a.087.087 0 0 0-.089-.006.63.63 0 0 0-.105.079c-.05.053-.102.105-.155.158a.387.387 0 0 0-.106.307.285.285 0 0 1-.069.132c-.063.063-.129.125-.191.185-.112.102-.201.22-.274.352-.046.09-.096.182-.142.27a.185.185 0 0 0 .076.255c.013.01.03.013.043.02a.59.59 0 0 0 .214.01.399.399 0 0 0 .228-.11.567.567 0 0 1 .27-.151c.086-.02.172-.033.261-.04a.705.705 0 0 0 .537-.32.662.662 0 0 1 .363-.27c.26-.076.535-.089.798-.036.211.043.422.089.633.135.162.036.32.089.469.162.119.059.218.155.277.273.04.08.076.162.105.248a.342.342 0 0 1-.052.306.39.39 0 0 0-.076.169c-.007.04 0 .085.023.118.02.03.026.066.016.1a.24.24 0 0 1-.141.174.22.22 0 0 0-.136.155.234.234 0 0 1-.178.178.227.227 0 0 1-.155-.016.515.515 0 0 0-.234-.05.181.181 0 0 0-.142.066.104.104 0 0 0 .013.145c.01.01.02.013.033.02.06.02.113.06.149.109.043.06.109.095.181.109.119.02.241.006.35-.04.132-.053.25-.125.36-.214a.552.552 0 0 0 .19-.3.229.229 0 0 1 .086-.129.44.44 0 0 0 .192-.38c-.004-.154 0-.31.013-.464a1.023 1.023 0 0 0-.056-.422.158.158 0 0 1 .023-.142.166.166 0 0 1 .135-.073c.237-.006.478-.01.719-.01.07 0 .135.033.178.086.053.07.132.112.218.122a.89.89 0 0 1 .303.086.187.187 0 0 0 .247-.086l.007-.016a.28.28 0 0 1 .115-.146.172.172 0 0 0 .063-.21.405.405 0 0 1-.03-.241Z" fill="#fff"/><path d="M83.949 34.817a1.121 1.121 0 0 0-.396-.34 3.636 3.636 0 0 0-.452-.19 1.175 1.175 0 0 0-.336-.07.908.908 0 0 0-.25.017 1.21 1.21 0 0 0-.15.04.163.163 0 0 0-.095.144.217.217 0 0 0 .033.218c.05.056.122.095.198.105a.42.42 0 0 1 .287.169l.208.287c.04.052.085.098.142.135.003.003.01.006.013.01.05.043.052.118.01.171a.453.453 0 0 1-.245.139.68.68 0 0 0-.333.174c-.082.08-.174.149-.273.205a.19.19 0 0 0-.096.204c.017.076.06.139.125.182.043.03.076.076.093.128a.21.21 0 0 1-.112.244.403.403 0 0 1-.29.023 3.83 3.83 0 0 1-.515-.19 2.52 2.52 0 0 1-.673-.456c-.158-.152-.32-.303-.478-.455a.196.196 0 0 1-.06-.172c.007-.032.014-.069.024-.102a.143.143 0 0 0-.093-.178.65.65 0 0 0-.21-.026.693.693 0 0 0-.281.063.29.29 0 0 0-.139.135.17.17 0 0 0 0 .168c.03.06.05.122.063.188.01.05.05.092.099.105.046.01.09.037.122.07a.85.85 0 0 0 .148.122c.218.151.43.313.63.484.149.13.307.241.478.334.175.095.357.178.545.244a.262.262 0 0 1 .168.23.29.29 0 0 1-.09.231 1.013 1.013 0 0 1-.326.224.749.749 0 0 1-.59-.006 1.528 1.528 0 0 1-.53-.386 27.565 27.565 0 0 0-.677-.729.112.112 0 0 0-.099-.033.078.078 0 0 0-.066.056.711.711 0 0 0 .09.498c.078.122.164.241.263.35.135.155.287.297.448.425.149.119.297.234.446.35.06.05.141.066.22.05.142-.037.284-.073.426-.103a1.04 1.04 0 0 0 .396-.175c.151-.105.303-.204.462-.297a.297.297 0 0 0 .099-.092c.003-.003.006-.01.01-.01a.086.086 0 0 1 .125-.01c.062.056.122.112.181.172.092.089.195.171.303.244a.644.644 0 0 0 .218.096c.09.02.178.052.26.092.057.026.106.06.152.099.04.033.1.03.136-.007a.154.154 0 0 0 .036-.158l-.06-.162a.129.129 0 0 0-.082-.082.419.419 0 0 0-.158-.023h-.013c-.02-.01-.033-.03-.027-.053a.198.198 0 0 0-.03-.181 2.17 2.17 0 0 1-.075-.11.18.18 0 0 0-.093-.072.787.787 0 0 0-.303-.03.445.445 0 0 1-.175-.016.098.098 0 0 1-.072-.109c.013-.082.016-.165.013-.247a.213.213 0 0 1 .062-.162.402.402 0 0 0 .12-.283c0-.112.009-.221.029-.333a.552.552 0 0 1 .151-.29.654.654 0 0 1 .235-.152c.102-.04.207-.076.313-.106a.527.527 0 0 0 .204-.105c.05-.04.096-.08.142-.122.043-.043.086-.09.122-.142a.37.37 0 0 0 .06-.32 1.08 1.08 0 0 0-.165-.34ZM93.453 47.19a.33.33 0 0 1 .198-.164.525.525 0 0 0 .317-.32c.023-.056.072-.096.135-.089h.138a.168.168 0 0 0 .135-.102.793.793 0 0 0 .057-.191.364.364 0 0 1 .135-.218.07.07 0 0 1 .092 0c.04.03.066.07.083.119a.46.46 0 0 1-.103.441.213.213 0 0 0-.033.212c.023.072.053.141.08.21a.191.191 0 0 0 .21.12.613.613 0 0 1 .268.01c.161.039.34-.01.455-.13.105-.098.21-.194.323-.283a.512.512 0 0 0 .188-.307c.033-.142.086-.273.158-.392.076-.122.172-.238.284-.34a.285.285 0 0 1 .317-.033c.102.056.234.04.316-.046a.748.748 0 0 0 .165-.237.337.337 0 0 0-.043-.347 1.325 1.325 0 0 0-.284-.26.265.265 0 0 1-.108-.238.324.324 0 0 0-.129-.29.55.55 0 0 0-.6.036.572.572 0 0 0-.211.363c-.013.08 0 .152.023.224a.382.382 0 0 0 .198.238c.062.03.085.102.056.165a.657.657 0 0 1-.158.2 2.552 2.552 0 0 0-.27.265.5.5 0 0 0-.126.227.157.157 0 0 1-.132.11.288.288 0 0 0-.152.059c-.053.042-.089.085-.132.131a.134.134 0 0 1-.181.03.309.309 0 0 1-.119-.313.552.552 0 0 0-.003-.284.994.994 0 0 0-.257-.412.326.326 0 0 0-.343-.076.872.872 0 0 1-.3.053c-.155 0-.307.023-.462.056-.119.03-.231.056-.35.08-.112.029-.227.039-.34.045-.118.007-.234.03-.346.056a.813.813 0 0 0-.372.228.222.222 0 0 1-.215.072.896.896 0 0 0-.296 0c-.146.03-.287.093-.406.182a.666.666 0 0 0-.257.465.613.613 0 0 1-.225.432.499.499 0 0 0-.194.333.42.42 0 0 0 .102.33.692.692 0 0 1 .142.23c.04.093.135.136.227.103.004-.007.004-.007.01-.007.08-.04.159-.072.238-.096.148-.04.283-.108.402-.197a.513.513 0 0 1 .346-.103c.142.017.29-.01.42-.079a.776.776 0 0 1 .514-.079c.165.023.33-.05.415-.191ZM99.713 47.669a.214.214 0 0 1-.053-.194.605.605 0 0 0-.023-.36.302.302 0 0 0-.11-.139.08.08 0 0 0-.111.02c0 .004-.004.007-.007.01-.03.066-.056.135-.082.201a.248.248 0 0 1-.053.096c-.03.036-.06.07-.086.105-.06.086-.115.172-.162.264a.05.05 0 0 1-.006.056c-.017.017-.046.02-.063.004a.61.61 0 0 0-.105-.083.199.199 0 0 0-.26.043.283.283 0 0 0-.05.244.166.166 0 0 0 .181.122.2.2 0 0 1 .201.086c.037.05.07.099.11.145.049.066.108.122.174.172a.446.446 0 0 0 .346.079.233.233 0 0 0 .175-.142c.036-.096.063-.195.076-.297a.96.96 0 0 0 .006-.194.394.394 0 0 0-.099-.238ZM98.697 49.031a7.05 7.05 0 0 0-.821-.574 3.34 3.34 0 0 1-.452-.326.572.572 0 0 0-.327-.132.131.131 0 0 1-.115-.093.109.109 0 0 1 0-.046.141.141 0 0 1 .155-.125.35.35 0 0 1 .284-.07c.059.014.121.01.178-.012a.359.359 0 0 0 .171-.126.75.75 0 0 0 .08-.119.122.122 0 0 0 0-.125.161.161 0 0 0-.133-.079c-.076 0-.155 0-.23.007a1.362 1.362 0 0 1-.45-.033.673.673 0 0 0-.303 0 .693.693 0 0 1-.375-.014.25.25 0 0 0-.277.1.461.461 0 0 1-.218.177.814.814 0 0 0-.393.337.307.307 0 0 0 .007.31.496.496 0 0 0 .38.224.45.45 0 0 0 .296-.066.191.191 0 0 1 .188 0c.076.046.162.08.25.096a.45.45 0 0 1 .242.119.361.361 0 0 0 .171.092c.08.016.158.043.234.072a.66.66 0 0 1 .205.139.45.45 0 0 0 .32.142c.046 0 .092.016.131.046.093.072.188.145.277.218.11.085.221.164.337.234a.955.955 0 0 1 .22.194c.02.023.03.056.034.086a.227.227 0 0 1-.086.188c-.06.043-.122.082-.188.119a.328.328 0 0 0-.112.099.177.177 0 0 1-.208.062 1.324 1.324 0 0 1-.234-.122c-.26-.165-.521-.33-.785-.491-.063-.04-.125-.073-.188-.109a.527.527 0 0 0-.158-.053.11.11 0 0 1-.096-.112.677.677 0 0 0-.013-.181.24.24 0 0 0-.073-.132.425.425 0 0 1-.092-.125.494.494 0 0 1-.046-.228.145.145 0 0 0-.056-.115.242.242 0 0 0-.126-.047.252.252 0 0 0-.098.02.109.109 0 0 0-.053.135c.026.07.033.145.02.221a.205.205 0 0 1-.09.132.301.301 0 0 1-.306.02 14.387 14.387 0 0 1-.307-.162.475.475 0 0 0-.432-.006.426.426 0 0 0-.194.201c-.047.096-.09.191-.136.287a.13.13 0 0 1-.158.073 11.699 11.699 0 0 0-.458-.12.895.895 0 0 0-.627.087.566.566 0 0 1-.26.066.252.252 0 0 0-.13.036.102.102 0 0 0-.052.072c-.01.05.01.1.046.132.155.132.314.26.475.386.192.155.426.244.673.26.175.014.35.024.524.034a.11.11 0 0 1 .103.095.16.16 0 0 1-.083.159.291.291 0 0 1-.105.04c-.145.029-.297.035-.446.019a.801.801 0 0 0-.32.026 1.223 1.223 0 0 0-.214.09.824.824 0 0 0-.32.3.881.881 0 0 1-.227.253.424.424 0 0 0-.159.274c-.01.07.014.139.066.185.09.082.192.145.3.194.165.073.3.195.386.353.076.139.145.277.208.422a.566.566 0 0 1 .046.268.292.292 0 0 0 .08.217c.065.07.125.142.18.214.04.056.1.096.169.113a.2.2 0 0 0 .185-.04.231.231 0 0 0 .085-.218 1.328 1.328 0 0 1-.006-.28.35.35 0 0 1 .062-.168.195.195 0 0 1 .139-.086.411.411 0 0 0 .274-.168.296.296 0 0 0 .052-.211 1.873 1.873 0 0 0-.046-.228.054.054 0 0 0-.06-.04.527.527 0 0 0-.2.06 1.495 1.495 0 0 0-.294.201.177.177 0 0 1-.178.033.413.413 0 0 1-.227-.207 1.816 1.816 0 0 1-.116-.3.425.425 0 0 0-.21-.271.18.18 0 0 1-.093-.148.254.254 0 0 1 .171-.261c.168-.056.337-.115.501-.178.162-.066.337-.099.512-.102.079 0 .155-.023.22-.066.14-.09.261-.208.353-.346a.258.258 0 0 1 .152-.106.21.21 0 0 1 .221.08c.07.095.162.17.267.22.08.036.159.073.241.106a.085.085 0 0 0 .119-.08c0-.066.033-.128.089-.161a.172.172 0 0 0 .072-.182.179.179 0 0 0-.085-.115 8.119 8.119 0 0 0-.347-.158.362.362 0 0 1-.207-.205.51.51 0 0 0-.373-.306.424.424 0 0 1-.234-.149 1.884 1.884 0 0 1-.093-.132.2.2 0 0 1-.013-.188.168.168 0 0 1 .073-.086.183.183 0 0 1 .214.007c.145.109.3.211.459.307a.84.84 0 0 1 .32.333c.039.076.102.138.18.178a.431.431 0 0 0 .314.036.242.242 0 0 1 .244.066c.188.195.412.347.66.452.158.066.316.129.475.188.072.026.151.02.22-.017.103-.049.212-.089.32-.112a.722.722 0 0 0 .554-.514.467.467 0 0 0-.131-.472 10.37 10.37 0 0 0-.541-.468ZM43.992 33.05a1.393 1.393 0 0 0-.336-.112 1.736 1.736 0 0 0-.39-.043h-.023c-.01 0-.02 0-.03.003a.424.424 0 0 1 .053.333c-.01.04.004.082.037.105a.31.31 0 0 1 .108.235.753.753 0 0 0 0 .122c.053-.007.11-.007.162-.007.056 0 .112 0 .165.003.096.007.191.007.284-.003a.125.125 0 0 0 .092-.07c.033-.091.066-.18.089-.27a.175.175 0 0 0-.026-.145.46.46 0 0 0-.185-.151Z" fill="#fff"/></svg>